<?xml version="1.0" encoding="UTF-8"?>
<svg width="615px" height="448px" viewBox="0 0 615 448" version="1.1" xmlns="http://www.w3.org/2000/svg" xmlns:xlink="http://www.w3.org/1999/xlink">
    <title>Artboard</title>
    <g id="Artboard" stroke="none" stroke-width="1" fill="none" fill-rule="evenodd">
        <g id="Logo" transform="translate(0.000000, 0.000000)" fill="#000000">
            <path d="M46.16,197.767895 L46.16,154.567895 L78.29,154.567895 C88.19,154.927895 97.145,153.577895 105.155,150.517895 C113.165,147.457895 120.05,143.182895 125.81,137.692895 C131.57,132.202895 136.025,125.767895 139.175,118.387895 C142.325,111.007895 143.9,103.267895 143.9,95.1678947 L143.9,95.1678947 L143.9,56.2878947 C143.36,48.5478947 141.425,41.1228947 138.095,34.0128947 C134.765,26.9028947 130.22,20.7828947 124.46,15.6528947 C118.7,10.5228947 111.905,6.51789474 104.075,3.63789474 C96.245,0.757894737 87.65,-0.412105263 78.29,0.127894737 L78.29,0.127894737 L0.53,0.127894737 L0.53,197.767895 L46.16,197.767895 Z M78.29,115.417895 L46.16,115.417895 L46.16,39.2778947 L78.29,39.2778947 C83.69,39.2778947 88.46,41.3028947 92.6,45.3528947 C96.74,49.4028947 98.81,54.1278947 98.81,59.5278947 L98.81,59.5278947 L98.81,95.1678947 C98.81,100.567895 96.74,105.292895 92.6,109.342895 C88.46,113.392895 83.69,115.417895 78.29,115.417895 L78.29,115.417895 Z M351.72,197.767895 L351.72,157.537895 L293.13,157.537895 L293.13,0.127894737 L247.77,0.127894737 L247.77,197.767895 L351.72,197.767895 Z M433.9,197.767895 L433.9,109.747895 L497.08,0.127894737 L444.16,0.127894737 L411.22,66.5478947 L378.01,0.127894737 L325.09,0.127894737 L388.27,109.747895 L388.27,197.767895 L433.9,197.767895 Z" id="PLY" fill-rule="nonzero"></path>
            <path d="M72.09,448.277895 C82.71,448.277895 92.115,446.702895 100.305,443.552895 C108.495,440.402895 115.335,436.127895 120.825,430.727895 C126.315,425.327895 130.5,419.027895 133.38,411.827895 C136.26,404.627895 137.7,396.887895 137.7,388.607895 L137.7,388.607895 L137.7,341.087895 L65.88,341.087895 L65.88,379.967895 L92.34,379.967895 L92.34,388.607895 C92.34,394.007895 90.315,398.777895 86.265,402.917895 C82.215,407.057895 77.49,409.127895 72.09,409.127895 L72.09,409.127895 L65.88,409.127895 C60.48,409.127895 55.71,407.057895 51.57,402.917895 C47.43,398.777895 45.36,394.007895 45.36,388.607895 L45.36,388.607895 L45.36,304.367895 C45.36,298.967895 47.43,294.242895 51.57,290.192895 C55.71,286.142895 60.48,284.117895 65.88,284.117895 L65.88,284.117895 L72.09,284.117895 C77.49,284.117895 82.215,286.142895 86.265,290.192895 C90.315,294.242895 92.34,298.967895 92.34,304.367895 L92.34,304.367895 L137.7,304.367895 C137.7,296.087895 136.26,288.347895 133.38,281.147895 C130.5,273.947895 126.315,267.647895 120.825,262.247895 C115.335,256.847895 108.495,252.617895 100.305,249.557895 C92.115,246.497895 82.71,244.967895 72.09,244.967895 L72.09,244.967895 L65.88,244.967895 C55.62,244.967895 46.485,246.407895 38.475,249.287895 C30.465,252.167895 23.715,256.172895 18.225,261.302895 C12.735,266.432895 8.46,272.417895 5.4,279.257895 C2.34,286.097895 0.63,293.387895 0.27,301.127895 L0.27,301.127895 L0,301.127895 L0,388.607895 C0,396.887895 1.44,404.627895 4.32,411.827895 C7.2,419.027895 11.43,425.327895 17.01,430.727895 C22.59,436.127895 29.475,440.402895 37.665,443.552895 C45.855,446.702895 55.26,448.277895 65.88,448.277895 L65.88,448.277895 L72.09,448.277895 Z M285.93,444.767895 L285.93,349.457895 L332.64,444.767895 L378.27,444.767895 L378.27,247.127895 L332.64,247.127895 L332.64,346.487895 L286.2,247.127895 L240.3,247.127895 L240.3,444.767895 L285.93,444.767895 Z M552.66,448.007895 C561.3,448.007895 569.355,446.387895 576.825,443.147895 C584.295,439.907895 590.865,435.497895 596.535,429.917895 C602.205,424.337895 606.66,417.767895 609.9,410.207895 C613.14,402.647895 614.76,394.637895 614.76,386.177895 C614.76,377.537895 613.14,369.482895 609.9,362.012895 C606.66,354.542895 602.205,348.017895 596.535,342.437895 C590.865,336.857895 584.295,332.447895 576.825,329.207895 C569.355,325.967895 561.3,324.347895 552.66,324.347895 L552.66,324.347895 L538.89,324.347895 C533.13,324.347895 528.315,322.817895 524.445,319.757895 C520.575,316.697895 518.64,312.287895 518.64,306.527895 C518.64,300.947895 520.575,296.177895 524.445,292.217895 C528.315,288.257895 533.13,286.277895 538.89,286.277895 L538.89,286.277895 L552.66,286.277895 C558.42,286.277895 563.28,288.257895 567.24,292.217895 C571.2,296.177895 573.18,300.947895 573.18,306.527895 L573.18,306.527895 L614.76,306.527895 C614.76,298.067895 613.14,290.057895 609.9,282.497895 C606.66,274.937895 602.205,268.367895 596.535,262.787895 C590.865,257.207895 584.295,252.797895 576.825,249.557895 C569.355,246.317895 561.3,244.697895 552.66,244.697895 L552.66,244.697895 L538.89,244.697895 C530.25,244.697895 522.195,246.317895 514.725,249.557895 C507.255,252.797895 500.73,257.207895 495.15,262.787895 C489.57,268.367895 485.16,274.937895 481.92,282.497895 C478.68,290.057895 477.06,298.067895 477.06,306.527895 C477.06,315.167895 478.68,323.087895 481.92,330.287895 C485.16,337.487895 489.57,343.697895 495.15,348.917895 C500.73,354.137895 507.255,358.232895 514.725,361.202895 C522.195,364.172895 530.25,365.657895 538.89,365.657895 L538.89,365.657895 L552.66,365.657895 C558.42,365.657895 563.28,367.637895 567.24,371.597895 C571.2,375.557895 573.18,380.417895 573.18,386.177895 C573.18,391.757895 571.2,396.527895 567.24,400.487895 C563.28,404.447895 558.42,406.427895 552.66,406.427895 L552.66,406.427895 L538.89,406.427895 C533.13,406.427895 528.315,404.447895 524.445,400.487895 C520.575,396.527895 518.64,391.757895 518.64,386.177895 L518.64,386.177895 L477.06,386.177895 C477.06,394.637895 478.68,402.647895 481.92,410.207895 C485.16,417.767895 489.57,424.337895 495.15,429.917895 C500.73,435.497895 507.255,439.907895 514.725,443.147895 C522.195,446.387895 530.25,448.007895 538.89,448.007895 L538.89,448.007895 L552.66,448.007895 Z" id="GNS" fill-rule="nonzero"></path>
            <circle id="Oval-Copy-2" cx="194.93" cy="101.767895" r="41"></circle>
            <circle id="Oval-Copy-3" cx="188.93" cy="350.767895" r="41"></circle>
            <circle id="Oval-Copy-4" cx="429.93" cy="350.767895" r="41"></circle>
        </g>
    </g>
</svg>